<svg width="1164" height="516" viewBox="0 0 1164 516" fill="none" xmlns="http://www.w3.org/2000/svg">
<path d="M1103.9 451.964C1113.94 454.857 1122.82 457.901 1130.42 461.098C1144.25 466.908 1153.72 473.154 1158.35 479.763C1160.65 483.042 1161.75 486.386 1161.63 489.815C1161.51 493.253 1160.18 496.878 1157.43 500.702C1151.82 508.52 1146.62 512.854 1141.87 514.371C1137.21 515.858 1132.82 514.69 1128.6 511.043C1124.33 507.358 1120.3 501.176 1116.54 492.795C1112.79 484.431 1109.35 473.958 1106.25 461.777C1105.44 458.617 1104.66 455.343 1103.9 451.964ZM63.9492 452.37C63.3896 454.604 62.8205 456.791 62.2393 458.927C58.9034 471.185 55.2184 481.769 51.2031 490.282C47.1815 498.809 42.8617 505.189 38.29 509.111C33.7501 513.007 29.0117 514.447 24.0146 513.244C18.9484 512.025 13.4259 508.046 7.4834 500.658C4.56848 497.034 3.0775 493.597 2.81055 490.34C2.54473 487.096 3.4834 483.92 5.62793 480.787C9.95792 474.462 19.1302 468.421 32.7061 462.753C41.4345 459.109 51.9106 455.647 63.9492 452.37ZM1099.41 61.4482C1087.95 111.91 1083 186.794 1083.89 261.26C1084.72 330.92 1090.67 400.319 1101.23 449.129C1075.14 441.865 1041.8 435.593 1003.13 430.294C891.849 415.044 736.021 407.791 580.396 408.211C424.772 408.631 269.292 416.725 158.703 432.185C122.831 437.199 91.6462 442.994 66.6982 449.564C78.5437 400.376 85.3086 329.603 86.3379 258.742C87.3917 186.195 82.4341 113.433 70.7158 63.5361C93.7669 68.7937 121.673 73.4623 153.34 77.542C264.24 91.8292 421.635 98.9697 579.269 98.9697C736.903 98.9697 894.831 91.83 1006.8 77.543C1042.95 72.9302 1074.35 67.5667 1099.41 61.4482ZM26.6514 1.25684C32.4043 0.301324 37.7077 2.02577 42.6279 6.16797C47.5767 10.3343 52.118 16.9371 56.2305 25.6582C60.3378 34.3685 63.9886 45.1286 67.1865 57.5449C67.4679 58.6375 67.7423 59.7438 68.0166 60.8613C52.1863 57.1409 38.8045 53.1365 28.2422 48.8496C15.0709 43.5038 6.50564 37.8041 2.91895 31.8574C1.15314 28.9296 0.601329 25.9545 1.2832 22.8848C1.97177 19.785 3.94175 16.4874 7.41309 12.998C14.44 5.93461 20.8495 2.22051 26.6514 1.25684ZM1125.04 6.41309C1129.6 2.19175 1134.49 0.429685 1139.76 1.33008C1145.09 2.24088 1151.01 5.90539 1157.51 12.9697C1160.71 16.4472 1162.42 19.7284 1162.88 22.8135C1163.33 25.8748 1162.56 28.8619 1160.55 31.8125C1156.5 37.7907 1147.48 43.5004 1133.91 48.8457C1125.08 52.3243 1114.41 55.6162 1102.09 58.7217C1102.11 58.6387 1102.13 58.5555 1102.15 58.4727C1105.14 45.9221 1108.55 35.0326 1112.38 26.2051C1116.21 17.3648 1120.44 10.6603 1125.04 6.41309Z" stroke="#4D1B24" stroke-width="2"/>
</svg>
